HIERARCHY
ROOT Hips
{
	OFFSET -14.64140 90.27770 -84.91600
	CHANNELS 6 Xposition Yposition Zposition Zrotation Xrotation Yrotation
	JOINT Spine
	{
		OFFSET 0.00000 13.20850 -1.60436
		CHANNELS 3 Zrotation Xrotation Yrotation
		JOINT Spine1
		{
			OFFSET 0.00000 8.61716 0.00000
			CHANNELS 3 Zrotation Xrotation Yrotation
			JOINT Spine2
			{
				OFFSET 0.00000 8.61717 0.00000
				CHANNELS 3 Zrotation Xrotation Yrotation
				JOINT Spine3
				{
					OFFSET 0.00000 8.61717 0.00000
					CHANNELS 3 Zrotation Xrotation Yrotation
					JOINT Neck
					{
						OFFSET 0.00000 11.07920 1.10792
						CHANNELS 3 Zrotation Xrotation Yrotation
						JOINT Neck1
						{
							OFFSET 0.00000 7.08032 0.00000
							CHANNELS 3 Zrotation Xrotation Yrotation
							JOINT Head
							{
								OFFSET 0.00000 7.08031 0.00000
								CHANNELS 3 Zrotation Xrotation Yrotation
								End site
								{
									OFFSET 0.00000 0.00000 0.00000
								}
							}
						}
					}
					JOINT RightShoulder
					{
						OFFSET -0.01000 7.91373 5.19711
						CHANNELS 3 Zrotation Xrotation Yrotation
						JOINT RightArm
						{
							OFFSET -18.41580 0.00000 0.00000
							CHANNELS 3 Zrotation Xrotation Yrotation
							JOINT RightForeArm
							{
								OFFSET -29.11090 0.00000 0.00000
								CHANNELS 3 Zrotation Xrotation Yrotation
								JOINT RightHand
								{
									OFFSET -24.65040 0.00000 0.00000
									CHANNELS 3 Zrotation Xrotation Yrotation
									JOINT RightHandThumb1
									{
										OFFSET -5.35114 -0.85590 3.97906
										CHANNELS 3 Zrotation Xrotation Yrotation
										JOINT RightHandThumb2
										{
											OFFSET -4.52789 0.00000 0.00000
											CHANNELS 3 Zrotation Xrotation Yrotation
											JOINT RightHandThumb3
											{
												OFFSET -2.46976 0.00000 0.00000
												CHANNELS 3 Zrotation Xrotation Yrotation
												End site
												{
													OFFSET 0.00000 0.00000 0.00000
												}
											}
										}
									}
									JOINT RightHandIndex1
									{
										OFFSET -14.26970 0.00000 2.88139
										CHANNELS 3 Zrotation Xrotation Yrotation
										JOINT RightHandIndex2
										{
											OFFSET -5.48836 0.00000 0.00000
											CHANNELS 3 Zrotation Xrotation Yrotation
											JOINT RightHandIndex3
											{
												OFFSET -3.01859 0.00000 0.00000
												CHANNELS 3 Zrotation Xrotation Yrotation
												End site
												{
													OFFSET 0.00000 0.00000 0.00000
												}
											}
										}
									}
									JOINT RightHandMiddle1
									{
										OFFSET -14.26970 0.00000 -0.09147
										CHANNELS 3 Zrotation Xrotation Yrotation
										JOINT RightHandMiddle2
										{
											OFFSET -6.17441 0.00000 0.00000
											CHANNELS 3 Zrotation Xrotation Yrotation
											JOINT RightHandMiddle3
											{
												OFFSET -3.56743 0.00000 0.00000
												CHANNELS 3 Zrotation Xrotation Yrotation
												End site
												{
													OFFSET 0.00000 0.00000 0.00000
												}
											}
										}
									}
									JOINT RightHandRing1
									{
										OFFSET -12.69180 0.00000 -3.06433
										CHANNELS 3 Zrotation Xrotation Yrotation
										JOINT RightHandRing2
										{
											OFFSET -5.62556 0.00000 0.00000
											CHANNELS 3 Zrotation Xrotation Yrotation
											JOINT RightHandRing3
											{
												OFFSET -3.56744 0.00000 0.00000
												CHANNELS 3 Zrotation Xrotation Yrotation
												End site
												{
													OFFSET 0.00000 0.00000 0.00000
												}
											}
										}
									}
									JOINT RightHandPinky1
									{
										OFFSET -11.11390 0.00000 -6.03719
										CHANNELS 3 Zrotation Xrotation Yrotation
										JOINT RightHandPinky2
										{
											OFFSET -4.52789 0.00000 0.00000
											CHANNELS 3 Zrotation Xrotation Yrotation
											JOINT RightHandPinky3
											{
												OFFSET -2.46976 0.00000 0.00000
												CHANNELS 3 Zrotation Xrotation Yrotation
												End site
												{
													OFFSET 0.00000 0.00000 0.00000
												}
											}
										}
									}
								}
							}
						}
					}
					JOINT LeftShoulder
					{
						OFFSET 0.01000 7.91373 5.19711
						CHANNELS 3 Zrotation Xrotation Yrotation
						JOINT LeftArm
						{
							OFFSET 18.41580 0.00000 0.00000
							CHANNELS 3 Zrotation Xrotation Yrotation
							JOINT LeftForeArm
							{
								OFFSET 29.11090 0.00000 0.00000
								CHANNELS 3 Zrotation Xrotation Yrotation
								JOINT LeftHand
								{
									OFFSET 24.65040 0.00000 0.00000
									CHANNELS 3 Zrotation Xrotation Yrotation
									JOINT LeftHandThumb1
									{
										OFFSET 5.35114 -0.85590 3.97906
										CHANNELS 3 Zrotation Xrotation Yrotation
										JOINT LeftHandThumb2
										{
											OFFSET 4.52789 0.00000 0.00000
											CHANNELS 3 Zrotation Xrotation Yrotation
											JOINT LeftHandThumb3
											{
												OFFSET 2.46977 0.00000 0.00000
												CHANNELS 3 Zrotation Xrotation Yrotation
												End site
												{
													OFFSET 0.00000 0.00000 0.00000
												}
											}
										}
									}
									JOINT LeftHandIndex1
									{
										OFFSET 14.26970 0.00000 2.88139
										CHANNELS 3 Zrotation Xrotation Yrotation
										JOINT LeftHandIndex2
										{
											OFFSET 5.48836 0.00000 0.00000
											CHANNELS 3 Zrotation Xrotation Yrotation
											JOINT LeftHandIndex3
											{
												OFFSET 3.01859 0.00000 0.00000
												CHANNELS 3 Zrotation Xrotation Yrotation
												End site
												{
													OFFSET 0.00000 0.00000 0.00000
												}
											}
										}
									}
									JOINT LeftHandMiddle1
									{
										OFFSET 14.26970 0.00000 -0.09147
										CHANNELS 3 Zrotation Xrotation Yrotation
										JOINT LeftHandMiddle2
										{
											OFFSET 6.17440 0.00000 0.00000
											CHANNELS 3 Zrotation Xrotation Yrotation
											JOINT LeftHandMiddle3
											{
												OFFSET 3.56744 0.00000 0.00000
												CHANNELS 3 Zrotation Xrotation Yrotation
												End site
												{
													OFFSET 0.00000 0.00000 0.00000
												}
											}
										}
									}
									JOINT LeftHandRing1
									{
										OFFSET 12.69180 0.00000 -3.06433
										CHANNELS 3 Zrotation Xrotation Yrotation
										JOINT LeftHandRing2
										{
											OFFSET 5.62556 0.00000 0.00000
											CHANNELS 3 Zrotation Xrotation Yrotation
											JOINT LeftHandRing3
											{
												OFFSET 3.56744 0.00000 0.00000
												CHANNELS 3 Zrotation Xrotation Yrotation
												End site
												{
													OFFSET 0.00000 0.00000 0.00000
												}
											}
										}
									}
									JOINT LeftHandPinky1
									{
										OFFSET 11.11390 0.00000 -6.03719
										CHANNELS 3 Zrotation Xrotation Yrotation
										JOINT LeftHandPinky2
										{
											OFFSET 4.52789 0.00000 0.00000
											CHANNELS 3 Zrotation Xrotation Yrotation
											JOINT LeftHandPinky3
											{
												OFFSET 2.46976 0.00000 0.00000
												CHANNELS 3 Zrotation Xrotation Yrotation
												End site
												{
													OFFSET 0.00000 0.00000 0.00000
												}
											}
										}
									}
								}
							}
						}
					}
					JOINT pCube4
					{
						OFFSET 0.00000 10.91090 1.10792
						CHANNELS 3 Zrotation Xrotation Yrotation
						End site
						{
							OFFSET 0.00000 0.00000 0.00000
						}
					}
				}
			}
		}
	}
	JOINT RightUpLeg
	{
		OFFSET -9.98441 0.00000 0.00000
		CHANNELS 3 Zrotation Xrotation Yrotation
		JOINT RightLeg
		{
			OFFSET 0.00000 -42.11790 0.00000
			CHANNELS 3 Zrotation Xrotation Yrotation
			JOINT RightFoot
			{
				OFFSET 0.00000 -45.00020 -0.00001
				CHANNELS 3 Zrotation Xrotation Yrotation
				JOINT RightForeFoot
				{
					OFFSET 0.00000 -3.74820 0.00000
					CHANNELS 3 Zrotation Xrotation Yrotation
					JOINT RightToeBase
					{
						OFFSET 0.00000 0.06325 14.43120
						CHANNELS 3 Zrotation Xrotation Yrotation
						End site
						{
							OFFSET 0.00000 0.00000 0.00000
						}
					}
				}
			}
		}
	}
	JOINT LeftUpLeg
	{
		OFFSET 9.98441 0.00000 0.00000
		CHANNELS 3 Zrotation Xrotation Yrotation
		JOINT LeftLeg
		{
			OFFSET 0.00000 -42.11800 0.00000
			CHANNELS 3 Zrotation Xrotation Yrotation
			JOINT LeftFoot
			{
				OFFSET 0.00000 -45.00070 0.00000
				CHANNELS 3 Zrotation Xrotation Yrotation
				JOINT LeftForeFoot
				{
					OFFSET 0.00000 -3.74824 0.00000
					CHANNELS 3 Zrotation Xrotation Yrotation
					JOINT LeftToeBase
					{
						OFFSET 0.00000 0.06325 14.43110
						CHANNELS 3 Zrotation Xrotation Yrotation
						End site
						{
							OFFSET 0.00000 0.00000 0.00000
						}
					}
				}
			}
		}
	}
}
MOTION
Frames: 4
Frame Time: 0.050000
-0.04423189041033102 -0.01342699860448817 0.02039575388667883 0.0263219638989834 0.019263807121154455 0.03247291371445734 -4.781484509189641 0.8638233548461519 -0.47956563250501993 -0.959852977287995 3.3186790541381552 0.3855519221505089 -1.2422527800407592 -1.854441039298759 -1.1592435042616362 -0.648902316168305 0.2746498936479726 -0.8338029422560999 -0.8204973531060848 12.273527216212578 1.0654703951386866 -0.0748462723482754 1.0572373460073214 0.2516706096331432 -0.464025804693556 -12.382308395671828 0.08671933650270472 -0.6340708928615361 0.9968303320288951 -12.576186666874035 68.29415260216962 14.685397500274496 5.7849681539792135 29.08463150759463 6.818315713537395 84.47807626750041 24.024066623429775 -0.2614730588777281 -5.755913952347206 4.532894752761236 -0.08751713594414887 -1.5744916880594622 -0.01113792735237723 0.02924919879370365 -56.220602127698804 0.04378711056937879 -0.03744919526890715 -56.26031960198501 -38.73150189211572 0.030548631079906827 -0.046387613358853545 -0.027849903058515674 0.013251125973752291 -0.04689343665068054 -0.04485020365075591 -0.005296468553314194 0.03287151627964148 -36.716235024302314 0.01870257953875464 -0.023148558869156295 -0.02570610435465084 -0.04777884688355955 0.03612187771215019 -0.0052217561669236166 0.032366813543477334 0.043063226164991385 -19.75218776713003 0.029915419883388406 0.046692167187693874 -0.03544356837161263 -0.04080583433847665 -0.002458894305761991 -0.026658427017451265 -0.042617437155407424 -0.019923259752530852 24.05258095116818 0.022542419355329746 0.021881818415918255 28.903198682190204 -0.008983147281439428 0.019866533031765676 28.873625255232792 -0.010641931960010224 0.03096456463468404 4.268332213726141 1.3772080885418287 12.860422937566373 -60.14125279486015 24.839598414202204 -21.644323416408046 2.416237813439833 13.76169720740371 -67.08599439934682 -11.848277674436277 8.587722467172801 -6.04979714885813 -0.44428571438461784 0.08658444293746773 -8.13561085710954 0.0031959352451129976 -0.03332630097901975 44.53692986042379 0.016516018270979673 0.006341594897576266 44.58307173150937 12.472566586141404 -0.000713635489290926 0.031908674370541 -0.02076042981696847 -0.010661502372247765 -0.0010113988735056842 -0.01798570372550211 0.013848628025456765 -0.030056471057423893 11.148972032933084 0.01797444536139454 -0.04903484699747476 0.03930138178628138 -0.0034174162334556415 0.04116622764341996 -0.008904680334210139 0.007987151948799918 0.006216181611027563 4.776777627494276 -0.03419891792658533 -0.04126348417924815 -0.03437423205485701 0.037775605018789155 -0.01961509821406715 -0.0092981377152643 -0.0321001172325068 0.0009835731434871496 -5.604918184169459 -0.007796486267375949 -0.003527967395302633 -6.733936420096608 -0.042898194212929404 -0.03663610797798599 -6.715816524064299 -0.010376633892710058 0.04208267451533938 -0.0488608866241346 0.007803512357646292 -0.025740962442799782 8.047365123133677 3.4815578748507807 -19.206344673184677 -0.04040316475883551 10.428973739316733 -0.0007775069794313388 -5.6701592199541695 -15.621773830996702 3.2418736463848514 0.005543695681184572 -0.0271714554703691 -0.02486993187761874 0.02923847847793343 4.727863007429057 -0.019260564711413675 12.436247095775881 -8.233736895101147 6.8416073175665195 0.009098321881991814 46.384576200644325 -0.04440627271513564 -4.298518967394156 -14.700668433059038 -3.8634397213680542 -0.011182026961818888 0.01684124884712199 -0.029235146467071337 0.01223568581273833 -10.783250940826045 0.0038291882573963506 
0.027224646938810812 -0.00586211177262459 0.009841702835931086 0.04565988633802189 -0.012988253599908461 0.022093498685278268 -4.6799481541086605 0.836700848214309 -0.4766928637726918 -0.9674760175074837 3.306696532585169 0.36159279026480984 -1.181554858732325 -1.7844804560767389 -1.3620018943603502 -0.5503776464576303 0.29450306220071903 -0.9213117038423848 -0.7284764412628812 12.168838867493298 0.9527921931991007 -0.03364114293537111 0.9785438962816426 0.0018019358104627015 -0.36828631984170107 -12.45998052596074 0.07164544228504705 -0.6611326457200345 1.0326924343914752 -12.573118708823099 68.26079903584224 14.873875743980483 5.390812065717681 29.45177044429157 7.212307573361341 83.29986412341992 24.250494493903123 -0.31364851572811653 -5.690444678527372 4.557818169890307 -0.11306450022400781 -1.5861210820797897 -0.00495023369966157 -0.025239917760908594 -56.22972965328555 0.0037409566678352165 -0.010830718468277252 -56.24214801205651 -38.74695102570278 -0.013273413702455888 -0.023822932055047784 0.035726315707599716 -0.003806766002519688 -0.04243609265340774 0.029065407053491876 -0.042922311254031086 -0.010704065081206682 -36.73584586689689 -0.03866243334617514 0.010542513570453018 0.04876035135656184 -0.021313076825312253 -0.044882888189641056 -0.00510115953466887 0.006142597522026972 -0.03831769833411454 -19.743268852731646 0.00040670490972387585 0.012274749089278792 0.03005713150137667 -0.0018825386236322123 -0.024781359188330354 0.009487764603177854 0.0022271038716578434 -0.031177132451429935 24.092663617927425 -0.04873319916008018 0.0018364523933649109 28.861626249466372 -0.00444347408110463 0.025931147795793294 28.882873277974507 0.025937755024001936 0.025900780571536462 4.103710325240167 1.405619839734885 12.671868614850847 -60.19019635840364 25.45694724239661 -21.51189965773596 2.233821146248181 13.421022453193643 -66.16835738686224 -11.8245299586526 8.576065751247738 -5.989865820052091 -0.4811673717005876 0.05456555217090016 -8.111178815055453 -0.04568185531894241 -0.018541396729976786 44.57185997353744 -0.04073945823970314 -0.020431188372723078 44.568587983003454 12.447671880777996 0.029527841197244536 -0.004328159932875863 -0.03462653149608744 -0.013547593147326346 0.015913737044544532 -0.01594535451525755 0.024721798124751556 0.011464692075858663 11.0735151677106 -0.012749236348681275 0.001574816905708157 0.011190707737899734 0.010566030402164493 -0.015150447530135386 -0.045984666030769276 -0.02753622760392929 0.04765399345672333 4.758755178341039 -0.011029533655078458 0.037207355300289076 -0.014070685996252033 -0.0036528224657462753 -0.011583407718337983 0.049944229809258306 0.019404090498965576 0.021054836114667123 -5.643599003722846 0.036821894578633454 0.004370713876919422 -6.673832286339921 0.040460268476337165 -0.02066413334006179 -6.709438896788312 0.04339553281819741 0.01660664108990535 -0.016724239834731335 0.02168486299317292 -0.029163142729058168 8.033737976021332 3.451293494745 -19.223264945311826 -0.021702100067435826 10.40904207727806 0.0013874484133052558 -5.655628355090742 -15.688691882804598 3.19561015064291 0.037657606646203885 0.029352488579586545 -0.0018731044567334351 0.03321812770127737 4.738945358816028 -0.04884714601535042 12.42167005246175 -8.2161120201014 6.856422938393762 -0.04729300237756157 46.35903152511602 0.013723611633295777 -4.321264639326554 -14.74470996913731 -3.8527419895328427 0.03477682145828142 -0.021598614450861944 -0.03363687232920448 0.0017433138327805292 -10.754693223969147 0.013928514261152193 
-0.02932816987603154 0.02135525656657379 -0.01875080378434916 0.01052962865806224 -0.037393130256001855 0.04484207438512033 -4.575729479408843 0.784285530117646 -0.4901532509905386 -0.987088327044243 3.296758764218693 0.3937955472269305 -1.212851663349645 -1.785438187297625 -1.4590850606174581 -0.49902526766021205 0.2720165572109075 -0.8704691842024681 -0.6504257103053349 12.199722821003418 0.8381363536914154 -0.07221267373327221 1.017294591174925 -0.1694872770570991 -0.3131531351963981 -12.397804046119884 0.08790323986594285 -0.6280386405742121 0.9695114856843292 -12.650697490777905 68.3444034391754 14.90392720454149 5.231990311616441 30.04897466025749 7.481179898848443 82.28186532435261 24.402093584899404 -0.32373732671337624 -5.659610616201745 4.510125040920251 -0.1713087575118752 -1.6075472103173134 0.02222901749646027 -0.028162500294030803 -56.18499834986005 -0.01015398974917375 -0.008035889581810703 -56.26263105138409 -38.740870219384085 -0.029845822128510315 0.004384400270875675 -0.012196499761782956 0.004491879809222724 -0.022757757203086145 0.025362314649883404 0.01403638935050866 -0.003549911319845442 -36.65400396777409 0.031164186453272846 0.01057350597801004 -0.0395621283490626 0.006751883302464285 -0.042194538656002034 -0.024058357039458547 -0.004890038158334516 0.018966123882259336 -19.73230488600525 0.0025446054704708594 -0.020843988964625974 -0.04900911515647988 0.04593963259763323 0.024150105084903516 0.02491532696963181 0.011128026790448704 0.009453674122246531 24.045256386337922 0.03938734406612635 -0.03854250545095222 28.866725836918764 -0.02971387556117466 -0.0011897414013849585 28.827856918658366 -0.006036608073777509 0.010529426445357735 4.132099515351797 1.3290265981287663 12.535458310332311 -60.293964855599995 25.805654119139323 -21.412613744260383 1.6494632541551681 13.003576537755917 -65.3804872134201 -11.81525726606477 8.622139032522487 -5.99053059629322 -0.4729998064604074 0.05827492246693413 -8.089712533257918 -0.041471871192770654 0.02147845835746687 44.55425241996399 -0.005731736772603294 0.029718563102070678 44.518570303062816 12.50097071926613 -0.028901756169818493 -0.02081411150278581 0.012719125403708786 -0.012116080864637531 0.014540155300705187 -0.04012591586563487 0.000670770045591756 -0.0043425134346515015 11.096170083270628 -0.03544169517909535 0.012803276658784574 -0.030111944734689828 -0.03342172798806464 -0.02531802229935923 0.010474159441181491 -0.018048103298385142 0.018941985734501565 4.772715574897341 0.010565649230957227 0.02084714973802834 0.034086135057310556 0.0039177487331374695 -0.007764929269372589 0.005178524117253118 -0.020828807258963952 -0.03268685615229214 -5.592005492854926 -0.012102740483717194 -0.03837357735197716 -6.673074160941085 -0.018590627672442704 0.004460216567537486 -6.700406141725071 0.02246245971302607 0.007547814110341122 0.007354842750779686 -0.0146960023301866 0.01821546955748031 8.020566599353055 3.487884873330662 -19.193752689541085 -0.022690940965546358 10.384832339610904 -0.014452066581632225 -5.613279098341015 -15.651457949706804 3.1853348351201403 0.02013948331415284 -0.04296586044327932 0.010045900259519855 0.0161169073581767 4.714332740421369 -0.005786186908978037 12.486711283762773 -8.19328019246127 6.8922387553710625 -0.016620353778747335 46.40542111107608 -0.035545612017167334 -4.33825158741945 -14.709501329985509 -3.8688843474294146 -0.005735224865171484 -0.0020552540246033426 -0.04562719168832127 0.005290968492829026 -10.768540120590837 -0.002364262490567645 
0.031049188707625432 -0.040653939726175765 -0.030646410401797476 -0.014222429437231586 -0.03172147051546469 0.04411327352618821 -4.5154524537926175 0.5822603402523361 -0.4763622219889445 -0.8799155226107911 3.2904231465671057 0.34574340731427483 -1.1843762376568223 -1.839700268198405 -1.5967087297960045 -0.43802375720876885 0.2986935697467882 -0.9325329753564557 -0.6074868739349278 12.219807712675905 0.7274446287148232 0.030855062012188465 1.019966551756797 -0.18597901901641528 -0.31936675879655135 -12.408513574370787 0.08410127443848019 -0.7627187111974688 1.0067479855718573 -12.651867170351327 68.4734448780139 14.800069061959197 5.125255224330185 30.88687469257979 7.691931369772531 81.37075127120059 24.551615214087715 -0.30002444033619535 -5.546547975155583 4.500033520745814 -0.09043908940232775 -1.5612019565684394 0.009732578422014481 0.03226690916347682 -56.18693094938113 0.03721446861556884 -0.021589427461783387 -56.2126967146743 -38.7705002570179 0.0041613293511408335 0.008194037695740595 0.02982089739738205 -0.007265253232503779 -0.03489465972321559 -0.006626043420662539 -0.004535372214439594 0.004797201368470529 -36.680838747053244 -0.04568058260688393 -0.010263417236041041 0.03633837918297373 0.02933757397642832 0.04292841457639144 0.020718519207459915 0.004665222389297738 0.01661094057375009 -19.742589124608703 0.04883293347255716 0.0047764548312873275 -0.008354243353251824 0.04952589137303345 0.013505597147583632 -0.039180856253409786 -0.0018715652161683971 0.04435809083309146 24.04863161115645 -0.03923542946761453 0.03736173307621615 28.879659292109984 -0.030806436201749655 0.00018459126315007205 28.83938771327735 0.006218026674091611 -0.03818772628786052 4.236943690109801 1.3728778555386223 12.460173571114506 -60.35631607276367 26.05606548534573 -21.42031032274859 0.8749786269483505 12.564314530704001 -64.8457585618585 -11.743591788127684 8.679520909213249 -6.01276582820947 -0.44426868212562287 0.07043456032892002 -8.077055964377703 -0.0020867635791737443 -0.04386059632486994 44.59757112546221 0.026157779944910073 0.013928362747528374 44.602947517073595 12.470387694056347 0.03714162512464561 -0.04149541679564141 0.0417080424035824 0.02212037251490279 -0.023597689999166036 0.0017801681464874187 -0.023212584181778198 0.009103385436695165 11.135694121583306 -0.00417803779682423 0.0006251042823169721 -0.007895054612818947 0.025701459924876102 -0.008052567386838723 0.01717127468711245 -0.04954495138146984 -0.012170455457380129 4.749524214733113 -0.00846421820167034 0.02563508226205069 0.0012674750774561865 0.035206638039922765 0.008428468905554999 -0.04917625225095865 -0.03502911088113775 -0.007804233116087909 -5.605313625804517 0.04565057944089806 -0.016578834027478586 -6.747713395759178 0.0026659179861455193 0.006573154068669581 -6.73158998409503 -0.006568043503153211 0.029722342090745573 -0.048504468967242156 -0.010477410914750762 -0.04569450849304928 8.018055079257746 3.4918035020506593 -19.210658622486157 -0.009769278117659973 10.414199313027607 -0.02019285317671782 -5.623457941035493 -15.626009705109086 3.229190032315166 0.022549166654152058 0.017879596922231244 -0.00386419611884804 -0.006668727119564573 4.655544484481865 0.025212667977414966 12.476153292976575 -8.222087716517297 6.902893844671291 0.03762766612404451 46.403264444121966 0.04687196694196369 -4.368751408051811 -14.768638006588336 -3.835642189856197 0.030444715970821327 0.04087223423025575 -0.04440853684182842 -0.022405600368854046 -10.769577111659451 -0.01420499079098577 
